# File created by Blade
# Date/Time:  Wed Jan 21 14:55:15 2015
# Frame Rate: 120.000 fps
#------------------------------------------------------
:FULLY-SPECIFIED
:DEGREES
859
root 24.398745 34.103286 -18.837822 -170.587189 48.524921 -187.538092
Spine -5.986887 -0.177235 1.865565
Head 4.126684 6.867166 -4.487362
LeftShoulder -17.648329 -31.014911 19.052706
LeftArm -17.928023 -1.503389 -14.805404
LeftForeArm -2.872800 -0.000000 0.367232
LeftHand -10.001664 -0.000000 4.522650
LeftHandThumb1 -26.253704 0.000000 33.147579
RightShoulder -11.101479 -4.374395 -13.117142
RightArm -4.588229 45.036694 23.963534
RightForeArm -31.839400 0.000000 12.843767
RightHand -15.676058 -0.000000 -9.467165
RightHandThumb1 -24.326973 -0.000000 -32.862282
LeftUpLeg -3.332641 30.350772 9.091611
LeftLeg 30.706844 -0.000000 -0.000000
LeftFoot -23.611634 27.085295 -16.141854
LeftToeBase 10.092049 -0.000000 -0.000000
RightUpLeg -45.274889 -25.549028 9.832748
RightLeg 38.336253 -0.000000 -0.000000
RightFoot -33.647757 -20.164743 19.995304
RightToeBase 27.361550 -0.000000 -0.000000
860
root 24.428595 34.259711 -18.875771 -170.773774 47.801014 -187.463886
Spine -6.109182 -0.070257 1.957462
Head 4.378634 7.164858 -4.621969
LeftShoulder -17.746118 -30.883096 18.981298
LeftArm -17.812906 -1.575344 -14.765144
LeftForeArm -2.868486 -0.000000 0.294347
LeftHand -9.888306 -0.000000 4.605373
LeftHandThumb1 -26.253704 0.000000 33.147579
RightShoulder -10.997627 -4.368467 -13.141159
RightArm -4.794293 44.874456 23.898131
RightForeArm -31.958799 -0.000000 13.133837
RightHand -15.808336 -0.000000 -9.550690
RightHandThumb1 -24.326973 -0.000000 -32.862282
LeftUpLeg -3.534972 31.022554 8.637533
LeftLeg 29.869366 -0.000000 -0.000000
LeftFoot -24.300054 26.523632 -16.644986
LeftToeBase 10.257694 -0.000000 -0.000000
RightUpLeg -44.086857 -25.809901 9.537922
RightLeg 36.965606 -0.000000 -0.000000
RightFoot -33.183591 -20.596214 20.302450
RightToeBase 26.996502 -0.000000 -0.000000
861
root 24.457526 34.411075 -18.910918 -170.976521 47.079183 -187.426843
Spine -6.245783 0.053531 1.972015
Head 4.620491 7.356552 -4.662534
LeftShoulder -17.857659 -30.759989 18.982259
LeftArm -17.647342 -1.709886 -14.762444
LeftForeArm -2.867110 -0.000000 0.218200
LeftHand -9.985915 0.000000 4.510839
LeftHandThumb1 -26.253704 0.000000 33.147579
RightShoulder -10.960314 -4.451663 -13.079388
RightArm -4.851137 44.833084 23.906456
RightForeArm -32.162676 -0.000000 13.347530
RightHand -15.962335 -0.000000 -9.668874
RightHandThumb1 -24.326973 -0.000000 -32.862282
LeftUpLeg -3.712125 31.606958 8.140335
LeftLeg 28.926395 -0.000000 -0.000000
LeftFoot -25.036994 26.064109 -17.329545
LeftToeBase 10.932866 -0.000000 -0.000000
RightUpLeg -42.903529 -25.966411 9.194756
RightLeg 35.599729 -0.000000 -0.000000
RightFoot -32.704197 -21.186348 20.441588
RightToeBase 28.077781 -0.000000 -0.000000
862
root 24.485296 34.554241 -18.949282 -171.204226 46.325226 -187.368971
Spine -6.342419 0.115118 2.019789
Head 4.864122 7.580378 -4.686061
LeftShoulder -17.932085 -30.690995 18.949512
LeftArm -17.562140 -1.789144 -14.690910
LeftForeArm -2.892585 -0.000000 0.170491
LeftHand -9.997106 0.000000 4.504561
LeftHandThumb1 -26.253704 0.000000 33.147579
RightShoulder -10.759020 -4.443010 -13.097097
RightArm -5.222192 44.553980 23.750549
RightForeArm -32.093281 0.000000 13.523659
RightHand -15.730556 -0.000000 -9.988686
RightHandThumb1 -24.326973 -0.000000 -32.862282
LeftUpLeg -3.792570 32.036729 7.681096
LeftLeg 27.859342 -0.000000 -0.000000
LeftFoot -25.712562 25.921122 -17.788464
LeftToeBase 12.168374 -0.000000 -0.000000
RightUpLeg -41.661776 -26.084706 8.832117
RightLeg 34.220701 -0.000000 -0.000000
RightFoot -32.173231 -21.903245 20.605181
RightToeBase 26.536624 -0.000000 -0.000000
863
root 24.502778 34.690387 -18.985665 -171.414788 45.545423 -187.374751
Spine -6.492061 0.241690 1.989290
Head 5.054179 7.669003 -4.680108
LeftShoulder -17.953058 -30.618971 18.874529
LeftArm -17.306162 -1.779629 -14.665909
LeftForeArm -3.091230 -0.000000 -0.025487
LeftHand -10.009294 0.000000 4.544745
LeftHandThumb1 -26.253704 0.000000 33.147579
RightShoulder -10.832328 -4.541357 -13.056271
RightArm -5.194745 44.525052 23.852526
RightForeArm -32.174925 -0.000000 13.645030
RightHand -15.801136 -0.000000 -10.126976
RightHandThumb1 -24.326973 -0.000000 -32.862282
LeftUpLeg -3.937536 32.348622 7.111103
LeftLeg 26.747540 -0.000000 -0.000000
LeftFoot -26.326677 25.816950 -18.315991
LeftToeBase 12.299474 -0.000000 -0.000000
RightUpLeg -40.552386 -26.183459 8.448370
RightLeg 32.946074 -0.000000 -0.000000
RightFoot -31.557696 -22.671901 20.635766
RightToeBase 25.605414 -0.000000 -0.000000
864
root 24.518284 34.818526 -19.022761 -171.692150 44.763295 -187.402883
Spine -6.593717 0.296099 1.942411
Head 5.301078 7.849292 -4.635498
LeftShoulder -18.044570 -30.527785 18.862604
LeftArm -17.055386 -1.857898 -14.664736
LeftForeArm -3.218848 0.000000 -0.179803
LeftHand -9.929494 0.000000 4.630998
LeftHandThumb1 -26.253704 0.000000 33.147579
RightShoulder -10.734605 -4.562657 -13.046200
RightArm -5.423055 44.418268 23.815369
RightForeArm -32.162607 -0.000000 13.854443
RightHand -15.639548 0.000000 -10.222268
RightHandThumb1 -24.326973 -0.000000 -32.862282
LeftUpLeg -3.980583 32.515992 6.554441
LeftLeg 25.584371 -0.000000 -0.000000
LeftFoot -26.890817 25.856799 -18.820948
LeftToeBase 12.225444 -0.000000 -0.000000
RightUpLeg -39.389659 -26.269293 8.032051
RightLeg 31.647461 -0.000000 -0.000000
RightFoot -30.931335 -23.599889 20.434727
RightToeBase 24.617438 -0.000000 -0.000000
